<mxfile host="app.diagrams.net" modified="2023-12-15T20:31:40.451Z" agent="Mozilla/5.0 (Windows NT 10.0; Win64; x64) AppleWebKit/537.36 (KHTML, like Gecko) Chrome/120.0.0.0 Safari/537.36 Edg/120.0.0.0" etag="1BWA3s0yjXxLCk9iLHav" version="22.1.11" type="device">
  <diagram id="MVRmylpjdR6t7XuySlVm" name="Страница 1">
    <mxGraphModel dx="2453" dy="793" grid="1" gridSize="10" guides="1" tooltips="1" connect="1" arrows="1" fold="1" page="1" pageScale="1" pageWidth="827" pageHeight="1169" math="0" shadow="0">
      <root>
        <mxCell id="0" />
        <mxCell id="1" parent="0" />
        <mxCell id="riDjCwX9mtNl7M9i3bwb-1" value="Пользователь" style="shape=umlActor;verticalLabelPosition=bottom;verticalAlign=top;html=1;outlineConnect=0;" parent="1" vertex="1">
          <mxGeometry x="240" y="170" width="30" height="60" as="geometry" />
        </mxCell>
        <mxCell id="riDjCwX9mtNl7M9i3bwb-12" value="Вход" style="ellipse;whiteSpace=wrap;html=1;" parent="1" vertex="1">
          <mxGeometry x="120" y="70" width="80" height="20" as="geometry" />
        </mxCell>
        <mxCell id="riDjCwX9mtNl7M9i3bwb-14" value="Регистрация" style="ellipse;whiteSpace=wrap;html=1;" parent="1" vertex="1">
          <mxGeometry x="120" y="100" width="80" height="20" as="geometry" />
        </mxCell>
        <mxCell id="riDjCwX9mtNl7M9i3bwb-17" value="" style="endArrow=open;endSize=12;dashed=1;html=1;rounded=0;exitX=0;exitY=0.5;exitDx=0;exitDy=0;entryX=0.5;entryY=0;entryDx=0;entryDy=0;" parent="1" source="riDjCwX9mtNl7M9i3bwb-14" target="riDjCwX9mtNl7M9i3bwb-18" edge="1">
          <mxGeometry width="160" relative="1" as="geometry">
            <mxPoint x="70" y="10" as="sourcePoint" />
            <mxPoint x="50" y="110" as="targetPoint" />
            <Array as="points">
              <mxPoint x="60" y="110" />
            </Array>
          </mxGeometry>
        </mxCell>
        <mxCell id="riDjCwX9mtNl7M9i3bwb-18" value="Подтверждение номера" style="ellipse;whiteSpace=wrap;html=1;" parent="1" vertex="1">
          <mxGeometry y="170" width="120" height="30" as="geometry" />
        </mxCell>
        <mxCell id="riDjCwX9mtNl7M9i3bwb-20" value="" style="endArrow=none;html=1;rounded=0;entryX=1;entryY=0.5;entryDx=0;entryDy=0;" parent="1" target="riDjCwX9mtNl7M9i3bwb-21" edge="1">
          <mxGeometry width="50" height="50" relative="1" as="geometry">
            <mxPoint x="260" y="170" as="sourcePoint" />
            <mxPoint x="260" y="50" as="targetPoint" />
            <Array as="points">
              <mxPoint x="260" y="50" />
            </Array>
          </mxGeometry>
        </mxCell>
        <mxCell id="riDjCwX9mtNl7M9i3bwb-21" value="Запуск" style="ellipse;whiteSpace=wrap;html=1;" parent="1" vertex="1">
          <mxGeometry x="120" y="40" width="80" height="20" as="geometry" />
        </mxCell>
        <mxCell id="riDjCwX9mtNl7M9i3bwb-22" value="" style="endArrow=none;html=1;rounded=0;entryX=0.5;entryY=1;entryDx=0;entryDy=0;" parent="1" target="riDjCwX9mtNl7M9i3bwb-25" edge="1">
          <mxGeometry width="50" height="50" relative="1" as="geometry">
            <mxPoint x="270" y="170" as="sourcePoint" />
            <mxPoint x="270" y="49.99999999999994" as="targetPoint" />
          </mxGeometry>
        </mxCell>
        <mxCell id="riDjCwX9mtNl7M9i3bwb-23" value="" style="endArrow=none;html=1;rounded=0;entryX=1;entryY=0.5;entryDx=0;entryDy=0;" parent="1" target="riDjCwX9mtNl7M9i3bwb-14" edge="1">
          <mxGeometry width="50" height="50" relative="1" as="geometry">
            <mxPoint x="240.0000000000001" y="170" as="sourcePoint" />
            <mxPoint x="240.0000000000001" y="49.99999999999994" as="targetPoint" />
            <Array as="points">
              <mxPoint x="240" y="110" />
            </Array>
          </mxGeometry>
        </mxCell>
        <mxCell id="riDjCwX9mtNl7M9i3bwb-24" value="" style="endArrow=none;html=1;rounded=0;entryX=1;entryY=0.5;entryDx=0;entryDy=0;" parent="1" target="riDjCwX9mtNl7M9i3bwb-12" edge="1">
          <mxGeometry width="50" height="50" relative="1" as="geometry">
            <mxPoint x="250.0000000000001" y="170" as="sourcePoint" />
            <mxPoint x="250.0000000000001" y="49.99999999999994" as="targetPoint" />
            <Array as="points">
              <mxPoint x="250" y="80" />
            </Array>
          </mxGeometry>
        </mxCell>
        <mxCell id="riDjCwX9mtNl7M9i3bwb-25" value="Просмотр туров" style="ellipse;whiteSpace=wrap;html=1;" parent="1" vertex="1">
          <mxGeometry x="230" width="80" height="30" as="geometry" />
        </mxCell>
        <mxCell id="riDjCwX9mtNl7M9i3bwb-27" value="Авторизированный" style="shape=umlActor;verticalLabelPosition=bottom;verticalAlign=top;html=1;outlineConnect=0;" parent="1" vertex="1">
          <mxGeometry x="240" y="310" width="30" height="60" as="geometry" />
        </mxCell>
        <mxCell id="riDjCwX9mtNl7M9i3bwb-30" value="" style="endArrow=block;endSize=16;endFill=0;html=1;rounded=0;exitX=0.5;exitY=0;exitDx=0;exitDy=0;exitPerimeter=0;" parent="1" source="riDjCwX9mtNl7M9i3bwb-27" edge="1">
          <mxGeometry width="160" relative="1" as="geometry">
            <mxPoint x="174" y="270" as="sourcePoint" />
            <mxPoint x="254" y="250" as="targetPoint" />
          </mxGeometry>
        </mxCell>
        <mxCell id="riDjCwX9mtNl7M9i3bwb-32" value="Редактирование профиля" style="ellipse;whiteSpace=wrap;html=1;" parent="1" vertex="1">
          <mxGeometry x="80" y="260" width="100" height="40" as="geometry" />
        </mxCell>
        <mxCell id="riDjCwX9mtNl7M9i3bwb-33" value="" style="endArrow=open;endSize=12;dashed=1;html=1;rounded=0;exitX=0;exitY=0.5;exitDx=0;exitDy=0;entryX=0.5;entryY=1;entryDx=0;entryDy=0;" parent="1" source="riDjCwX9mtNl7M9i3bwb-32" target="riDjCwX9mtNl7M9i3bwb-18" edge="1">
          <mxGeometry width="160" relative="1" as="geometry">
            <mxPoint x="70" y="160" as="sourcePoint" />
            <mxPoint x="60" y="290" as="targetPoint" />
            <Array as="points">
              <mxPoint x="60" y="280" />
            </Array>
          </mxGeometry>
        </mxCell>
        <mxCell id="riDjCwX9mtNl7M9i3bwb-35" value="" style="endArrow=none;html=1;rounded=0;entryX=1;entryY=0.5;entryDx=0;entryDy=0;exitX=0.333;exitY=0;exitDx=0;exitDy=0;exitPerimeter=0;" parent="1" source="riDjCwX9mtNl7M9i3bwb-27" target="riDjCwX9mtNl7M9i3bwb-32" edge="1">
          <mxGeometry width="50" height="50" relative="1" as="geometry">
            <mxPoint x="250" y="300" as="sourcePoint" />
            <mxPoint x="230" y="180" as="targetPoint" />
            <Array as="points">
              <mxPoint x="250" y="280" />
            </Array>
          </mxGeometry>
        </mxCell>
        <mxCell id="riDjCwX9mtNl7M9i3bwb-37" value="" style="endArrow=none;html=1;rounded=0;entryX=0;entryY=0.5;entryDx=0;entryDy=0;" parent="1" target="riDjCwX9mtNl7M9i3bwb-38" edge="1">
          <mxGeometry width="50" height="50" relative="1" as="geometry">
            <mxPoint x="260" y="310" as="sourcePoint" />
            <mxPoint x="260" y="280" as="targetPoint" />
            <Array as="points">
              <mxPoint x="260" y="280" />
            </Array>
          </mxGeometry>
        </mxCell>
        <mxCell id="riDjCwX9mtNl7M9i3bwb-38" value="Работа с билетами" style="ellipse;whiteSpace=wrap;html=1;" parent="1" vertex="1">
          <mxGeometry x="290" y="265" width="80" height="30" as="geometry" />
        </mxCell>
        <mxCell id="riDjCwX9mtNl7M9i3bwb-40" value="" style="endArrow=open;endSize=12;dashed=1;html=1;rounded=0;exitX=1;exitY=0;exitDx=0;exitDy=0;entryX=0;entryY=0.5;entryDx=0;entryDy=0;" parent="1" source="riDjCwX9mtNl7M9i3bwb-38" target="riDjCwX9mtNl7M9i3bwb-41" edge="1">
          <mxGeometry width="160" relative="1" as="geometry">
            <mxPoint x="410" y="290" as="sourcePoint" />
            <mxPoint x="340" y="190" as="targetPoint" />
            <Array as="points">
              <mxPoint x="358" y="230" />
            </Array>
          </mxGeometry>
        </mxCell>
        <mxCell id="riDjCwX9mtNl7M9i3bwb-41" value="Покупка билетов" style="ellipse;whiteSpace=wrap;html=1;" parent="1" vertex="1">
          <mxGeometry x="410" y="210" width="80" height="40" as="geometry" />
        </mxCell>
        <mxCell id="riDjCwX9mtNl7M9i3bwb-42" value="Возвращение билетов" style="ellipse;whiteSpace=wrap;html=1;" parent="1" vertex="1">
          <mxGeometry x="410" y="260" width="90" height="40" as="geometry" />
        </mxCell>
        <mxCell id="riDjCwX9mtNl7M9i3bwb-43" value="" style="endArrow=open;endSize=12;dashed=1;html=1;rounded=0;entryX=0;entryY=0.5;entryDx=0;entryDy=0;exitX=1;exitY=0.5;exitDx=0;exitDy=0;" parent="1" source="riDjCwX9mtNl7M9i3bwb-38" target="riDjCwX9mtNl7M9i3bwb-42" edge="1">
          <mxGeometry width="160" relative="1" as="geometry">
            <mxPoint x="350" y="260" as="sourcePoint" />
            <mxPoint x="370" y="100" as="targetPoint" />
          </mxGeometry>
        </mxCell>
        <mxCell id="riDjCwX9mtNl7M9i3bwb-44" value="Менеджер" style="shape=umlActor;verticalLabelPosition=bottom;verticalAlign=top;html=1;outlineConnect=0;" parent="1" vertex="1">
          <mxGeometry x="240" y="450" width="30" height="60" as="geometry" />
        </mxCell>
        <mxCell id="riDjCwX9mtNl7M9i3bwb-48" value="" style="endArrow=none;html=1;rounded=0;exitX=0.5;exitY=0;exitDx=0;exitDy=0;exitPerimeter=0;entryX=0;entryY=0.5;entryDx=0;entryDy=0;" parent="1" source="riDjCwX9mtNl7M9i3bwb-44" target="riDjCwX9mtNl7M9i3bwb-49" edge="1">
          <mxGeometry width="50" height="50" relative="1" as="geometry">
            <mxPoint x="270" y="320" as="sourcePoint" />
            <mxPoint x="330" y="420" as="targetPoint" />
            <Array as="points">
              <mxPoint x="255" y="425" />
            </Array>
          </mxGeometry>
        </mxCell>
        <mxCell id="riDjCwX9mtNl7M9i3bwb-49" value="Работа с турами" style="ellipse;whiteSpace=wrap;html=1;" parent="1" vertex="1">
          <mxGeometry x="290" y="410" width="80" height="30" as="geometry" />
        </mxCell>
        <mxCell id="riDjCwX9mtNl7M9i3bwb-51" value="" style="endArrow=open;endSize=12;dashed=1;html=1;rounded=0;entryX=0;entryY=0.5;entryDx=0;entryDy=0;exitX=1;exitY=0.5;exitDx=0;exitDy=0;" parent="1" source="riDjCwX9mtNl7M9i3bwb-49" target="riDjCwX9mtNl7M9i3bwb-53" edge="1">
          <mxGeometry width="160" relative="1" as="geometry">
            <mxPoint x="370" y="424.6299999999999" as="sourcePoint" />
            <mxPoint x="410" y="424.6299999999999" as="targetPoint" />
          </mxGeometry>
        </mxCell>
        <mxCell id="riDjCwX9mtNl7M9i3bwb-52" value="Редактирование туров" style="ellipse;whiteSpace=wrap;html=1;" parent="1" vertex="1">
          <mxGeometry x="410" y="490" width="100" height="50" as="geometry" />
        </mxCell>
        <mxCell id="riDjCwX9mtNl7M9i3bwb-53" value="Создание туров" style="ellipse;whiteSpace=wrap;html=1;" parent="1" vertex="1">
          <mxGeometry x="410" y="415" width="100" height="20" as="geometry" />
        </mxCell>
        <mxCell id="riDjCwX9mtNl7M9i3bwb-54" value="" style="endArrow=open;endSize=12;dashed=1;html=1;rounded=0;entryX=0;entryY=0.5;entryDx=0;entryDy=0;exitX=1;exitY=1;exitDx=0;exitDy=0;" parent="1" source="riDjCwX9mtNl7M9i3bwb-49" target="riDjCwX9mtNl7M9i3bwb-52" edge="1">
          <mxGeometry width="160" relative="1" as="geometry">
            <mxPoint x="370" y="429.9999999999999" as="sourcePoint" />
            <mxPoint x="410" y="429.9999999999999" as="targetPoint" />
            <Array as="points">
              <mxPoint x="358" y="515" />
            </Array>
          </mxGeometry>
        </mxCell>
        <mxCell id="riDjCwX9mtNl7M9i3bwb-55" value="Удаление туров" style="ellipse;whiteSpace=wrap;html=1;" parent="1" vertex="1">
          <mxGeometry x="410" y="450" width="100" height="25" as="geometry" />
        </mxCell>
        <mxCell id="riDjCwX9mtNl7M9i3bwb-56" value="" style="endArrow=open;endSize=12;dashed=1;html=1;rounded=0;entryX=0;entryY=0.5;entryDx=0;entryDy=0;exitX=0.963;exitY=0.825;exitDx=0;exitDy=0;exitPerimeter=0;" parent="1" source="riDjCwX9mtNl7M9i3bwb-49" target="riDjCwX9mtNl7M9i3bwb-55" edge="1">
          <mxGeometry width="160" relative="1" as="geometry">
            <mxPoint x="368.45940099198083" y="445.5405188859188" as="sourcePoint" />
            <mxPoint x="420" y="555" as="targetPoint" />
            <Array as="points">
              <mxPoint x="367" y="463" />
            </Array>
          </mxGeometry>
        </mxCell>
        <mxCell id="riDjCwX9mtNl7M9i3bwb-58" value="Администратор" style="shape=umlActor;verticalLabelPosition=bottom;verticalAlign=top;html=1;outlineConnect=0;" parent="1" vertex="1">
          <mxGeometry x="240" y="590" width="30" height="60" as="geometry" />
        </mxCell>
        <mxCell id="riDjCwX9mtNl7M9i3bwb-59" value="" style="endArrow=block;endSize=16;endFill=0;html=1;rounded=0;exitX=0.5;exitY=0;exitDx=0;exitDy=0;exitPerimeter=0;" parent="1" source="riDjCwX9mtNl7M9i3bwb-58" edge="1">
          <mxGeometry width="160" relative="1" as="geometry">
            <mxPoint x="254" y="560" as="sourcePoint" />
            <mxPoint x="255" y="530" as="targetPoint" />
          </mxGeometry>
        </mxCell>
        <mxCell id="_FiQoU-UDPDDMK83gYtG-11" value="" style="endArrow=open;endSize=12;dashed=1;html=1;rounded=0;entryX=0;entryY=0.5;entryDx=0;entryDy=0;exitX=0;exitY=0.5;exitDx=0;exitDy=0;" edge="1" parent="1" target="_FiQoU-UDPDDMK83gYtG-13" source="_FiQoU-UDPDDMK83gYtG-17">
          <mxGeometry width="160" relative="1" as="geometry">
            <mxPoint x="50" y="460" as="sourcePoint" />
            <mxPoint x="90" y="459.6299999999999" as="targetPoint" />
          </mxGeometry>
        </mxCell>
        <mxCell id="_FiQoU-UDPDDMK83gYtG-12" value="Выдача Блокировок акаунта" style="ellipse;whiteSpace=wrap;html=1;" vertex="1" parent="1">
          <mxGeometry x="90" y="525" width="100" height="50" as="geometry" />
        </mxCell>
        <mxCell id="_FiQoU-UDPDDMK83gYtG-13" value="Изменение профиля авториз.Пользователя" style="ellipse;whiteSpace=wrap;html=1;" vertex="1" parent="1">
          <mxGeometry x="90" y="440" width="100" height="40" as="geometry" />
        </mxCell>
        <mxCell id="_FiQoU-UDPDDMK83gYtG-14" value="" style="endArrow=open;endSize=12;dashed=1;html=1;rounded=0;entryX=0;entryY=0.5;entryDx=0;entryDy=0;" edge="1" parent="1" target="_FiQoU-UDPDDMK83gYtG-12" source="_FiQoU-UDPDDMK83gYtG-17">
          <mxGeometry width="160" relative="1" as="geometry">
            <mxPoint x="39" y="470" as="sourcePoint" />
            <mxPoint x="90" y="464.9999999999999" as="targetPoint" />
            <Array as="points">
              <mxPoint x="38" y="550" />
            </Array>
          </mxGeometry>
        </mxCell>
        <mxCell id="_FiQoU-UDPDDMK83gYtG-15" value="Удаление профиля" style="ellipse;whiteSpace=wrap;html=1;" vertex="1" parent="1">
          <mxGeometry x="90" y="485" width="100" height="35" as="geometry" />
        </mxCell>
        <mxCell id="_FiQoU-UDPDDMK83gYtG-16" value="" style="endArrow=open;endSize=12;dashed=1;html=1;rounded=0;entryX=0;entryY=0.5;entryDx=0;entryDy=0;exitX=0;exitY=0.5;exitDx=0;exitDy=0;" edge="1" parent="1" target="_FiQoU-UDPDDMK83gYtG-15" source="_FiQoU-UDPDDMK83gYtG-17">
          <mxGeometry width="160" relative="1" as="geometry">
            <mxPoint x="47" y="470" as="sourcePoint" />
            <mxPoint x="100" y="590" as="targetPoint" />
            <Array as="points">
              <mxPoint x="47" y="498" />
            </Array>
          </mxGeometry>
        </mxCell>
        <mxCell id="_FiQoU-UDPDDMK83gYtG-17" value="Работа с пользователями" style="ellipse;whiteSpace=wrap;html=1;" vertex="1" parent="1">
          <mxGeometry x="-70" y="450" width="80" height="30" as="geometry" />
        </mxCell>
        <mxCell id="_FiQoU-UDPDDMK83gYtG-18" value="" style="endArrow=none;html=1;rounded=0;" edge="1" parent="1" source="_FiQoU-UDPDDMK83gYtG-17" target="riDjCwX9mtNl7M9i3bwb-44">
          <mxGeometry width="50" height="50" relative="1" as="geometry">
            <mxPoint x="190" y="440" as="sourcePoint" />
            <mxPoint x="225" y="415" as="targetPoint" />
            <Array as="points">
              <mxPoint x="190" y="415" />
            </Array>
          </mxGeometry>
        </mxCell>
        <mxCell id="_FiQoU-UDPDDMK83gYtG-22" value="" style="endArrow=none;html=1;rounded=0;" edge="1" parent="1" source="riDjCwX9mtNl7M9i3bwb-58" target="_FiQoU-UDPDDMK83gYtG-23">
          <mxGeometry width="50" height="50" relative="1" as="geometry">
            <mxPoint x="330" y="610" as="sourcePoint" />
            <mxPoint x="365" y="585" as="targetPoint" />
            <Array as="points">
              <mxPoint x="330" y="585" />
            </Array>
          </mxGeometry>
        </mxCell>
        <mxCell id="_FiQoU-UDPDDMK83gYtG-23" value="Изменения статуса акаунтов" style="ellipse;whiteSpace=wrap;html=1;" vertex="1" parent="1">
          <mxGeometry x="370" y="575" width="80" height="55" as="geometry" />
        </mxCell>
      </root>
    </mxGraphModel>
  </diagram>
</mxfile>
